<?xml version="1.0" encoding="UTF-8" standalone="no"?><svg xmlns="http://www.w3.org/2000/svg" xmlns:xlink="http://www.w3.org/1999/xlink" fill="#000000" height="1000" viewBox="0 0 1000 1000" width="1000"><g><g><path d="M342.3,902c-19.8-43-30.9-90-14.5-136.3c15.9-45.1,55.5-74,95.9-96 c68.4-37.2,134.3-65.6,176.3-135.1c42.9-71,38.6-141.7,11.2-217.4c-12-33-24.2-67.2-52.7-89.7c-27.3-21.6-61.6-30.4-94.7-38.7 c-1.8-0.4-2.5,2.2-0.8,2.7c43.7,12.6,89.8,26.8,115.7,67.2c21.8,34,36.1,79.7,44.3,119.2c18.1,87.3-24.2,174.2-94.2,226.6 c-59.2,44.4-140.1,60.6-186.3,121.9c-38.6,51.1-36.4,124.2-3.6,177.7C340.2,906.3,343.4,904.4,342.3,902L342.3,902z" fill="#bf7e42"/></g><g><path d="M321.9,838.8c-7.9-2.9,11.2-33.5,14.1-37.2c8.8-11.6,19.9-17.6,31.7-25.5 c1.8-1.2,0.7-4-1.5-3.5c-16.6,4-31.9,19.5-40.6,33.6c-4.5,7.3-17.7,29.6-7.3,36.1c0.7,0.4,1.6,0.4,2.3,0c0.6-0.3,1.1-0.6,1.7-0.9 C323.3,840.6,323,839.1,321.9,838.8L321.9,838.8z" fill="#bf7e42"/></g><g><path d="M343.4,788.6c18.9-33.1,49.7-46.1,86.7-46.9c3.1-0.1,3.1-4.6,0-4.8 c-36.8-1.8-74.4,14.8-89.6,49.9C339.6,788.8,342.3,790.6,343.4,788.6L343.4,788.6z" fill="#bf7e42"/></g><g><path d="M431.1,736.6c-12.2,22-34.6,42.9-60.6,44.5c-12.4,0.8-24.4-0.9-33.4,9.3 c-1.5,1.7,0.5,4.8,2.6,3.4c19.1-12.7,41.5-3.2,60.9-17.3c13.9-10.1,28.1-21.8,33.6-38.5C434.8,736.1,432.1,734.9,431.1,736.6 L431.1,736.6z" fill="#bf7e42"/></g><g><path d="M287.9,700.9c15.8,23.8,30.3,59.5,28.9,88.5c-0.1,2.5,3.4,2.6,4.2,0.6 c6.1-15.8-1.7-33.3-7.1-48.3c-5.6-15.8-12.1-30.2-23.7-42.5C289.1,698,287,699.5,287.9,700.9L287.9,700.9z" fill="#bf7e42"/></g><g><path d="M310,734c1.2-19.2-1.6-43.8-8.8-61.7c-7.3-18.2-25.7-28.9-41.9-38.5 c-3.1-1.8-5.5,2.7-2.7,4.7c18.1,13.2,35.8,22.1,41.8,45.5c4.3,16.6,4.9,33.8,7.9,50.6C306.8,736.6,309.9,735.9,310,734L310,734z" fill="#bf7e42"/></g><g><path d="M256.4,636.1c-2.3,19.6-2.2,40.7,6.6,58.9c9,18.7,26.1,29.5,43.4,39.6 c3.7,2.2,7.1-3.7,3.4-5.8c-16.4-9.3-33.3-19.1-42-36.7c-8.5-17.4-8-37.3-6.8-56.1C261.1,633.1,256.7,633.3,256.4,636.1 L256.4,636.1z" fill="#bf7e42"/></g><g><path d="M341.7,734.5c17.4-24.8,19.9-57.4,18.4-86.8c-0.2-3-4.1-2.8-4.5,0c-2,14.6-1,29.5-3.1,44.1 c-2.1,14.9-8.8,27.5-13.3,41.7C338.7,735,340.8,735.7,341.7,734.5L341.7,734.5z" fill="#bf7e42"/></g><g><path d="M356.2,698.7c-3.6-22.2-10-43.5-7.7-66.3c2-20.3,10.5-37.7,17.1-56.8 c0.8-2.3-2.8-3.8-3.9-1.6c-21.8,40.8-24.2,82.2-8.7,125.7C353.6,701.7,356.5,700.8,356.2,698.7L356.2,698.7z" fill="#bf7e42"/></g><g><path d="M362.5,574.7c0.1,16.2,6.8,31.1,9.5,46.9c4.6,27.1-6.2,47.9-20,70.4c-1.5,2.4,2.1,5.3,3.9,3 c28.3-35.1,29.6-81.2,8.1-120.7C363.6,573.6,362.4,573.9,362.5,574.7L362.5,574.7z" fill="#bf7e42"/></g><g><path d="M344.8,729.9c13.1-10.3,25.7-21.9,40.6-29.6c19.4-10.1,38.5-9.5,59.7-10.1 c2.2-0.1,2.9-3.6,0.5-4c-42.1-7.4-74.7,12.1-103.3,41.3C340.8,729.1,343.1,731.3,344.8,729.9L344.8,729.9z" fill="#bf7e42"/></g><g><path d="M419.8,688.9c1.4,0.9,18.7-10,21.5-10.9c11.1-3.6,22.3-3.7,33.6-2.1 c20.4,3.1,38.1,12.9,55.4,23.7c3.3,2.1,6.3-3.2,3-5.2c-32.3-20.2-87.1-43.5-117.2-6.3c-1,1.2-0.1,3.4,1.6,2.8 c0.6-0.2,1.2-0.4,1.8-0.6C420.3,690.1,420.4,689.2,419.8,688.9L419.8,688.9z" fill="#bf7e42"/></g><g><path d="M531.6,696.7c-43,17-82,12.2-123.1-9.1c-3.8-2-7.2,3.8-3.4,5.8c31.9,17,98.6,38.6,127.5,5 C533.2,697.7,532.6,696.3,531.6,696.7L531.6,696.7z" fill="#bf7e42"/></g><g><path d="M423.1,612.5c-4.9,14.9-6.7,30.2-14.2,44.2c-6.8,12.7-16.6,22-27.7,30.9 c-2.2,1.8,0.7,5.4,3,3.9c26.4-16.7,40.2-48.1,42.5-78.5C426.9,610.8,423.7,610.6,423.1,612.5L423.1,612.5z" fill="#bf7e42"/></g><g><path d="M411.8,660.1c-10-49.9,13.9-85.3,39.6-125.1c1.5-2.3-2.2-5.3-3.9-3 c-27.3,35.3-57,83.2-39.1,129C409.1,663.2,412.2,662.4,411.8,660.1L411.8,660.1z" fill="#bf7e42"/></g><g><path d="M449.4,531.7c1.9,39.8,1.1,99.5-39.6,121.3c-3.3,1.7-0.4,6.7,2.9,5 c41.5-22.3,47.1-85.3,39.9-126.7C452.3,529.5,449.4,529.9,449.4,531.7L449.4,531.7z" fill="#bf7e42"/></g><g><path d="M537.6,636.4c-37.9,1.9-81.2,9.2-114.1,29.2c-1.8,1.1-0.6,4.4,1.5,3.5 c37.6-15.8,73.6-20.7,113.1-29.2C540,639.4,539.6,636.3,537.6,636.4L537.6,636.4z" fill="#bf7e42"/></g><g><path d="M492.4,646c19.6-9,35.6-22.1,58.1-23.5c19.3-1.2,37.7,4.9,55.8,10.6c2.5,0.8,4.2-3.2,1.8-4.2 c-44.7-19.3-78.3-12.4-117.8,13.6C488,643.9,490,647.1,492.4,646L492.4,646z" fill="#bf7e42"/></g><g><path d="M606.1,627.8c-17.9,11.7-33.1,28-56.1,29.2c-19.4,1-37.7-10.6-55.5-16.2 c-2.6-0.8-4.4,3.2-1.9,4.4c19.6,9.4,42.4,20.7,64.6,16.7c19.5-3.6,37.9-16.9,51.1-31.3C609.6,629.2,607.9,626.6,606.1,627.8 L606.1,627.8z" fill="#bf7e42"/></g><g><path d="M506.4,553.3c-18.4,37.9-32.2,74.7-66,101.5c-2.6,2,0.8,6.5,3.5,4.6 c35-24.2,52.4-65.4,65.2-104.9C509.7,552.8,507.2,551.7,506.4,553.3L506.4,553.3z" fill="#bf7e42"/></g><g><path d="M482.9,603.7c-7.2,0-4.3-45.7-3.7-48.6c2.3-11,6.7-21.5,12.6-31.1 c12.1-19.7,29.6-33.8,47.1-48.3c2.2-1.8-0.7-5.5-3.1-4c-43.1,28-81.2,81.8-57,134c0.3,0.7,1.3,1.2,2.1,1.2c0.5,0,1,0,1.5,0 c1,0,1.9-1,1.5-2c-0.1-0.1-0.1-0.3-0.2-0.4C483.7,604,483.4,603.7,482.9,603.7L482.9,603.7z" fill="#bf7e42"/></g><g><path d="M534.2,473.2c-0.4,27.5,2.2,54.9-8.9,80.9c-10,23.3-30.1,33.5-47.1,50.4 c-2.8,2.8,1.5,7.2,4.4,4.4c18.5-17.9,38.2-27.2,48.7-52.2c10.8-25.8,10-56.2,6.5-83.4C537.5,471,534.2,470.8,534.2,473.2 L534.2,473.2z" fill="#bf7e42"/></g><g><path d="M624.6,563.6c-61.2,16.2-120.7,50.8-170.9,88.9c-2.6,2-0.4,6.3,2.7,4.5 c56.4-32.3,106.9-68.4,169.2-89.8C627.9,566.4,627,562.9,624.6,563.6L624.6,563.6z" fill="#bf7e42"/></g><g><path d="M583.5,579.2c12.8-18.1,28.6-31.8,50-38.5c21.8-6.9,42.8-3.5,65.1-4.7 c1.6-0.1,1.9-2.3,0.4-2.8c-40.9-13.4-99.7,2.9-117.9,44.6C580.3,579.4,582.4,580.7,583.5,579.2L583.5,579.2z" fill="#bf7e42"/></g><g><path d="M697.5,534c-25.5,39-79.5,60.1-124.8,47.4c-3.7-1.1-5.1,4.5-1.6,5.7 c43.3,15.6,110.4-7.9,130.3-50.8C702.7,533.7,699.2,531.5,697.5,534L697.5,534z" fill="#bf7e42"/></g><g><path d="M581.3,442.4c2.1,26.6,7,51.2-0.4,77.6c-6.4,22.9-16.6,45.5-30,65.2 c-0.8,1.2,0.9,2.4,1.9,1.5c38.3-33.8,44-98.6,32.2-144.8C584.6,439.9,581.2,440.2,581.3,442.4L581.3,442.4z" fill="#bf7e42"/></g><g><path d="M581,526.8c-30-38.5-8.3-84.1-2.7-126.7c0.3-2.3-3.3-2.6-4-0.5c-12.2,38.5-31.2,98,4.3,129.6 C580.3,530.6,582.3,528.4,581,526.8L581,526.8z" fill="#bf7e42"/></g><g><path d="M573.8,399.8c11.1,21.1,24.9,38.2,25.9,63.3c0.9,22.8-6.5,43.6-20,61.9 c-2.4,3.3,3,6.3,5.4,3.2c30.4-39.7,26.9-94.7-8.6-130.3C575,396.4,572.9,398.1,573.8,399.8L573.8,399.8z" fill="#bf7e42"/></g><g><path d="M679.7,430.6c-31.4,19.7-63.2,48.9-75.7,84.9c-0.9,2.7,3,4,4.4,1.9 c10.4-15.7,18.9-31.8,31.5-46c12.3-13.8,26.5-26.7,41.9-37.1C684,432.7,682,429.2,679.7,430.6L679.7,430.6z" fill="#bf7e42"/></g><g><path d="M641,467.2c5.7-24,14-43.2,35.4-57.5c19.2-12.9,43.2-20.2,66.2-15.6c3.7,0.7,5.3-4.8,1.6-5.7 c-44.3-10.9-111.1,27.8-106.6,78.3C637.7,468.6,640.5,469.3,641,467.2L641,467.2z" fill="#bf7e42"/></g><g><path d="M740.5,391c-5.5,34.8-27.7,51.2-61.1,57c-18.9,3.3-37,7.1-46.9,24.9c-1.9,3.4,3.1,6.3,5.2,3 c18.4-28.4,57.5-16.9,82.3-35.8c15.3-11.6,24.6-29.4,25.3-48.5C745.5,388.9,740.9,388.2,740.5,391L740.5,391z" fill="#bf7e42"/></g><g><path d="M568.9,344.8c11.2,9.5,22.4,19.1,33.8,28.5c13,10.7,19.9,21.1,23.8,37.4 c0.5,2.1,4.2,2.4,4.6,0c4.8-31-40.1-53.2-60.4-68C569.3,341.7,567.7,343.8,568.9,344.8L568.9,344.8z" fill="#bf7e42"/></g><g><path d="M612.1,372.1c-3.7-43.8-50.2-83.2-94.6-66.7c-1.8,0.7-1.8,3.8,0.5,3.7 c21.3-1.2,41-0.9,59.2,12.1c17.4,12.3,26.4,31.1,30.1,51.6C607.8,375.5,612.4,374.9,612.1,372.1L612.1,372.1z" fill="#bf7e42"/></g><g><path d="M516.9,308.4c2.5,20.5,8.8,37.7,26.1,49.6c23.8,16.3,52.3,18.4,76.6,32.7 c2.5,1.5,5.3-2,3.1-4.1C609,373.1,588,372,570.8,365.1c-14.6-5.9-30.1-13.5-38.5-27c-5.9-9.5-7.5-20.6-12.6-30.5 C519.1,306.3,516.7,306.8,516.9,308.4L516.9,308.4z" fill="#bf7e42"/></g><g><path d="M664.3,335.1c-20.3,20.9-39.2,63.5-34.2,92.8c0.2,1.3,2.3,1.2,2.6,0 c7.3-31.1,14.4-64.7,33.7-91.1C667.4,335.5,665.3,334,664.3,335.1L664.3,335.1z" fill="#bf7e42"/></g><g><path d="M641.8,377.6c2.3-19.1,4.2-46.1,17-61.6c13.2-16,34-22.5,53.3-27.2c2.4-0.6,2-4.7-0.6-4.5 c-20.2,2-44,12.2-57.1,28.4c-12.7,15.7-18.4,45.9-15.4,65.4C639.3,379.7,641.6,379,641.8,377.6L641.8,377.6z" fill="#bf7e42"/></g><g><path d="M710.6,286.4c-2.5,15.6-3.7,30.6-11.6,44.7c-7.5,13.2-18.2,19-31.3,25.6 c-15.9,8-28.1,17.6-30.4,36.1c-0.3,2.3,3.2,2.5,3.9,0.5c11.3-30.4,39.8-28,57.6-50.5c12-15,18-37.7,14.6-56.5 C713,285.1,710.8,285,710.6,286.4L710.6,286.4z" fill="#bf7e42"/></g><g><path d="M631,244.6c-10.4,12.9-15.7,30.2-20.3,45.9c-3.6,12.5-6.8,25.5-0.2,37.5 c1.2,2.2,4.7,0.7,4-1.7c-8.6-28.7,11.4-53.7,19.3-80.1C634.2,244.7,632,243.3,631,244.6L631,244.6z" fill="#bf7e42"/></g><g><path d="M616.9,277.4c-5.2-36.7,14.8-62,46.5-77.6c3.3-1.6,0.4-6.5-2.9-4.9 c-31.2,15.5-59.7,46.2-46.6,83.3C614.7,280.1,617.2,279.3,616.9,277.4L616.9,277.4z" fill="#bf7e42"/></g><g><path d="M661.4,197.6c1.5,9.5-2.7,22.1-4.9,31.4c-3.4,14.7-6.9,28.9-19.2,38.8 c-9.8,7.9-23.3,8.4-25.5,22.5c-0.3,2.2,2.6,3.9,3.9,1.6c5.8-10.6,16.4-11.9,25.1-19c6.7-5.4,11.5-11.9,15-19.7 c4.8-11,7-24.3,8.8-36.1c1-6.4,4-15.2,0.2-20.9C663.6,194.3,661.1,195.5,661.4,197.6L661.4,197.6z" fill="#bf7e42"/></g><g><path d="M480.7,257.9c33.9-25.3,66.8-23.6,99.9,2.2c2.5,1.9,6-1.4,3.5-3.5 c-15.8-13.8-29.9-22.8-51.7-23.5c-20.1-0.7-40.5,6.7-54.6,21.2C476.1,256.1,478.5,259.6,480.7,257.9L480.7,257.9z" fill="#bf7e42"/></g><g><path d="M542.3,234.4c-22.5-12.7-41.7-17.9-66.9-7.4c-26.9,11.2-27.5,41.3-45.8,60.8 c-1.5,1.5,0.4,4.1,2.3,3c16.6-9.7,16.7-22.6,25.1-38.4c9-17,27.3-25.4,46.5-25.4c13.2,0,25.1,6.5,37.3,11.4 C542.9,239.1,544.3,235.5,542.3,234.4L542.3,234.4z" fill="#bf7e42"/></g><g><path d="M431,290.6c18.7-15.6,47.1-8.4,68.9-16.3c24.7-8.9,40.5-34.8,70.4-23c2.6,1,4.1-3,1.9-4.4 c-8.5-5.3-15.4-5.8-25.2-4.5c-23,3.2-27.4,18-48.7,26c-21,7.9-58-3.2-69.3,20.7C428.4,290.4,429.9,291.5,431,290.6L431,290.6z" fill="#bf7e42"/></g><g><path d="M543.7,169.7c-3.6,12.3-2.3,24.2-0.3,36.8c1.4,8.9,3.6,18.5,12.1,23c2,1,3.7-1.3,2.3-3 c-11.9-14.5-13-38.3-10.8-56.3C547.2,168.3,544.2,168,543.7,169.7L543.7,169.7z" fill="#bf7e42"/></g><g><path d="M547.3,206.9c-12.5-20.7-14.2-42.1-6-64.6c5.2-14.3,12.3-26.3,13.4-41.8 c0.1-2.1-3.3-2.6-3.7-0.5c-3.4,21.8-17.8,39.8-20.6,61.9c-2.3,17.6,2,34.2,13,48C545.2,212.1,548.7,209.3,547.3,206.9L547.3,206.9 z" fill="#bf7e42"/></g><g><path d="M551.1,100.4c2.8,17.3,8.6,34.2,9.5,51.8c1,18.3-3.9,31.9-9.3,48.6 c-3.7,11.5-6.6,22.9,4.1,30.7c2.6,1.9,5.6-2.2,3.4-4.4c-10.2-10,1.1-28.6,4.4-38.9c3.3-10.3,4.5-20.8,4.3-31.6 c-0.5-19.7-5.6-39.4-13.5-57.4C553.2,97.6,550.9,98.9,551.1,100.4L551.1,100.4z" fill="#bf7e42"/></g><g><path d="M520.9,209.3c5.4-19.9-8.9-35.7-27.5-41c-13.1-3.7-26.2-2-39.4-0.2 c-26.9,3.5-47.1,5.1-73.3-4.7c-2.2-0.8-3.6,2.6-1.6,3.8c17,9.7,35.4,12.3,54.8,10.3c10-1,19.8-3.2,29.8-4.3 c23.6-2.6,54.9,5.7,53.3,35.6C516.8,211.1,520.4,211.5,520.9,209.3L520.9,209.3z" fill="#bf7e42"/></g><g><path d="M377.5,166.9c8.8,21.8,30,32.3,51,40.5c13.7,5.3,26.9,9.7,41.6,9c17-0.8,37.4-9.9,54-2.4 c3.4,1.6,6.4-3.2,3-5.2c-14.7-8.6-34-1.5-49.8-0.1c-36.4,3.1-74.9-14.1-96.9-43.1C379.4,164.4,376.7,165.1,377.5,166.9 L377.5,166.9z" fill="#bf7e42"/></g></g></svg>