<?xml version="1.0" encoding="UTF-8" standalone="no"?><svg xmlns="http://www.w3.org/2000/svg" xmlns:xlink="http://www.w3.org/1999/xlink" fill="#000000" height="1000" viewBox="0 0 1000 1000" width="1000"><g><g><path d="M344.2,824.6c29.8-47.4-4.6-108.1,26.3-155.1c27.5-41.7,84.8-50,120.3-82.9 c69.9-64.7,49.1-179.2,120.7-243.6c1.4-1.3-0.5-3.9-2.1-2.7c-78,59.3-52.2,180.7-124.5,244.3c-35,30.7-87.1,39.4-116,77.5 c-35.7,47.1-2.3,110.1-27.6,160.8C340.3,824.8,343,826.4,344.2,824.6L344.2,824.6z" fill="#bf7e42"/></g><g><path d="M354.7,747.9c3.9-17.1-5.9-33.4-14-47.9c-8.8-15.7-16.8-30.5-18.3-48.9 c-1.2-14.8,1.5-29.7,0.9-44.6c-1.9-46.8-34.3-88.4-66.8-119.6c-1.8-1.7-4.2,0.8-2.7,2.7c16.5,20.3,34.9,38.7,47.9,61.6 C316.4,577,319.3,602,318,631c-0.9,19.7,0,37.1,8.7,55c10.4,21.4,20.7,38.1,25.3,61.9C352.3,749.3,354.4,749.2,354.7,747.9 L354.7,747.9z" fill="#bf7e42"/></g><g><path d="M253.6,490.5c48,20.3,73.7,58.6,75.2,111c1.1,39.7-7.3,83.8,15.7,119.1 c1.6,2.5,5.3,0.3,4-2.3c-25.7-51.7-3.4-107.2-20.5-160.1c-10.9-33.5-38.5-61.9-72.8-71.3C253,486.4,251.5,489.6,253.6,490.5 L253.6,490.5z" fill="#bf7e42"/></g><g><path d="M379.3,652.4c33.8-14.1,41-53.6,35.8-86.3c-8.9-55-52.4-125.8,10-165.4 c1.5-0.9,0.5-3.6-1.2-3c-34.2,12.8-40.8,54.5-35.6,86.2c8.6,52.9,53,128.8-10.2,165.3C376.4,650.3,377.5,653.2,379.3,652.4 L379.3,652.4z" fill="#bf7e42"/></g><g><path d="M414.7,404.5c1.2,0,1.2-1.9,0-1.9C413.5,402.6,413.5,404.5,414.7,404.5L414.7,404.5z" fill="#bf7e42"/></g><g><path d="M421.4,398.6c-18.9,11.6-22.1,31.4-21.5,52.3c0.9,34.9,4.6,70,7,104.9c0.2,3.4,5.6,3.4,5.3,0 c-1.6-23.4-3.2-46.9-4.8-70.3c-1.9-27.3-10.9-64.9,16.4-82.7C426.4,401.1,424,396.9,421.4,398.6L421.4,398.6z" fill="#bf7e42"/></g><g><path d="M429.1,621c34-3.7,54.7-35.8,58.7-67.7c6.8-53.9-21.8-107.5,0.4-160c1-2.4-3.2-4.2-4.3-1.8 c-13.8,32-9.5,65-4.7,98.5c6.8,47.3,9.3,115.1-50.6,127.5C426.7,617.9,427.1,621.2,429.1,621L429.1,621z" fill="#bf7e42"/></g><g><path d="M486.3,398.9c-1.8,25.2,6.2,53,6,79.1c-0.2,28.4-5.2,55.3-11.2,82.9 c-0.6,2.7,3.2,3.8,4.2,1.1c18.2-52.6,16-115.4,1.4-168.6c-0.5-1.8-3.2-1.1-2.8,0.8c0.4,1.6,0.7,3.2,1.1,4.9 C485.1,399.9,486.3,399.7,486.3,398.9L486.3,398.9z" fill="#bf7e42"/></g><g><path d="M367,676.6c45.5-63.6,122.4-24.3,185.8-32.6c42.3-5.5,78.7-34.9,93.4-74.8 c0.9-2.6-3.3-4.4-4.4-1.9c-11.9,27.3-31.1,49.8-58.5,62.4c-30.5,14-63.7,10.1-95.9,6.6c-41.8-4.6-101.5-7.1-122.1,39.2 C364.6,676.8,366.2,677.8,367,676.6L367,676.6z" fill="#bf7e42"/></g><g><path d="M642.9,571.2c0.5-1.6,0.9-3.2,1.4-4.8c0.5-1.9-1.8-4.1-3.6-2.7 c-22.3,16.9-43.4,35.3-67.8,49.3c-30.2,17.3-59,22.9-93.2,24.1c-2,0.1-2.6,3.2-0.5,3.7c27.9,5.4,57.9-3.7,83-15.9 c16-7.8,30.9-17.6,45.2-28.2c5-3.7,33.9-23.4,33.4-25.4C641.1,572.3,642.7,572.2,642.9,571.2L642.9,571.2z" fill="#bf7e42"/></g><g><path d="M509.3,563.9c29.1-35.8,76.4-41.7,109.8-71.5c32.3-28.9,48.7-76.2,55.9-117.8 c0.3-1.9-2.2-2.6-2.9-0.8c-17.2,47.8-26.9,98.3-73.5,127.2c-31,19.3-71.4,28.3-92.3,60.6C505.1,563.4,507.9,565.7,509.3,563.9 L509.3,563.9z" fill="#bf7e42"/></g><g><path d="M672.7,375.8c-22.1,16.8-34.1,42.9-45.7,67.4c-15.3,32.1-31.1,57.9-61.5,77.5 c-1.8,1.2-0.7,4.4,1.5,3.6c24.5-8.7,40.8-32,52.7-54c17.7-32.4,29.5-64.1,55.2-91.7C676.3,377.2,674.4,374.4,672.7,375.8 L672.7,375.8z" fill="#bf7e42"/></g><g><path d="M549.2,453.3c15.5-38.8-0.3-80.2-7-119.2c-9.4-54.2,6.9-98.2,52.7-129.3 c2.1-1.4,0.3-4.4-1.9-3.3c-31.8,15.9-53.9,50-58.3,85c-7.1,56.8,25.9,108.7,11.9,166.1C546.2,454.3,548.6,454.9,549.2,453.3 L549.2,453.3z" fill="#bf7e42"/></g><g><path d="M591,210.4c0.9-1.9,1.9-3.7,2.8-5.6c0.9-1.8-1.6-4.1-3-2.3C553.3,248.5,532.4,317,543,376 c0.4,2.3,4.2,1.8,4.1-0.6c-0.9-30.7-0.9-59.7,7.3-89.7c4.1-15.1,9.7-29.7,16.6-43.7c4.8-9.8,16.4-22.5,18.2-32.4 C589,210.6,590.4,211.5,591,210.4L591,210.4z" fill="#bf7e42"/></g><g><path d="M594.8,357.6c27.6-16.4,50.9-36.2,80.8-49.2c29.6-12.9,59.8-19.3,91.4-24.5 c2.4-0.4,1.9-4.4-0.6-4.3c-31.8,2.1-63.7,11.4-92.8,24.1c-27.6,12-60.5,28.6-80.2,52.2C592.6,356.7,593.6,358.3,594.8,357.6 L594.8,357.6z" fill="#bf7e42"/></g><g><path d="M764.9,278.5c-55.2,38.2-127.2,45-179.2,87.8c-2.2,1.8,0.7,5.6,3,4 c54.8-39,127.3-44.9,179-88C769.9,280.6,767.2,277,764.9,278.5L764.9,278.5z" fill="#bf7e42"/></g></g></svg>