<?xml version="1.0" encoding="UTF-8" standalone="no"?><svg xmlns="http://www.w3.org/2000/svg" xmlns:xlink="http://www.w3.org/1999/xlink" fill="#000000" height="1000" viewBox="0 0 1000 1000" width="1000"><g><g><path d="M394.4,318.7c35.1,42.9,66.3,81,86.3,133.5c18.5,48.4,28,100.3,26.1,152.2 c-3.5,98.2-67.5,208.9-14.5,303.4c1.9,3.3,7.8,1.1,6.4-2.7C454,788.5,529.4,673.3,517,553.9c-8.9-85.4-50.7-184.1-120.9-237.3 C394.8,315.6,393.6,317.6,394.4,318.7L394.4,318.7z" fill="#fff9e4"/></g><g><path d="M480.9,807.4c4.7-30.5-15.1-76.3-40.6-93.7c-2-1.4-4.6,1.3-3.3,3.3 c9.2,14.3,20.3,26,27.2,41.9c6.9,15.9,8,32,12.4,48.4C477.1,809.4,480.5,809.7,480.9,807.4L480.9,807.4z" fill="#fff9e4"/></g><g><path d="M453.7,723.1c-29.2-16.9-60.8-27-87.5-48.4c-29.5-23.6-50.5-56.5-59.8-93.1 c-11-43.2,14-108-30.2-136.8c-3.2-2.1-6,2.9-3,5.1c36.7,26.8,17.3,79.7,23.4,118.1c3.7,23.5,12,46.4,24.4,66.6 c28.3,46.3,79.6,78,131.5,91.3C454.1,726.3,455.1,724,453.7,723.1L453.7,723.1z" fill="#fff9e4"/></g><g><path d="M273.1,450.3c51.3,28.7,59.9,87,91.2,131.8c33.3,47.8,67.4,83,80.1,142.2 c0.8,3.7,6.3,2.1,5.6-1.5c-5.3-26.4-14.1-51.7-27.7-75.1c-16.5-28.4-41.3-50.6-58.5-78.5c-27.1-43.9-38.2-98.8-88-123.5 C272.8,444.2,270.1,448.6,273.1,450.3L273.1,450.3z" fill="#fff9e4"/></g><g><path d="M286.3,462.6c26.9,20.6,29.4,55.3,40.2,85.1c7.3,20,16.1,39.5,26.4,58.2 c23.8,43.4,55.4,81.9,92.3,114.7c3.4,3,8.3-2,5-5c-44.7-39.6-80.8-86.9-105.5-141.5c-15-33.2-18.9-98.4-56.3-115.2 C285.9,457.9,284.2,461,286.3,462.6L286.3,462.6z" fill="#fff9e4"/></g><g><path d="M441.2,612.9c-4.5,21.8-5.4,47.6,15.5,61.8c20,13.5,30.3-3.4,29.5-22.3 c-0.7-16.8-9.2-51.4-29.5-54.9c-24.4-4.2-25.8,28.1-19.6,43.2c1.4,3.3,7.6,3.5,7.1-1c-1-7.6-4.3-16.5-1.7-23.9 c4.6-13,17-9.4,23.3,0.3c6.3,9.7,10.2,20.8,11.4,32.3c0.8,6.9,3.1,24-10.5,23c-6.6-0.4-13.6-9.3-16.5-14.2 c-7.5-12.5-7.9-29.4-5.7-43.4C444.9,611.7,441.6,610.7,441.2,612.9L441.2,612.9z" fill="#fff9e4"/></g><g><path d="M444.1,648.2c0.5,5.4,2.8,10.7,5.7,15.3c2.4,3.8,5.8,9.5,10.7,9.8c1.7,0.1,2.7-1.7,2.4-3.2 c-0.8-3.9-5.3-6.7-7.4-10c-2.6-4-3.9-8.3-5.5-12.8C448.9,644.5,443.8,644.6,444.1,648.2L444.1,648.2z" fill="#fff9e4"/></g><g><path d="M452.7,615.1c2.9,2.1,5.5,4.1,7.4,7.2c1.6,2.6,1.6,6.9,4,8.8c1,0.8,2.9,1.2,3.9,0 c2.9-3.7,0.2-9.3-2.1-12.7c-2.6-3.8-6.5-7.2-11.1-8.1C451.7,609.7,450.3,613.3,452.7,615.1L452.7,615.1z" fill="#fff9e4"/></g><g><path d="M461.7,678.7c5.7,10,20.4,4.2,19.9-6.5c-0.2-3.9-5.4-5.6-7.5-2c-1.3,2.3-3.1,3.9-5.6,4.7 c-4.8,1.6-2.8,9.2,2.1,7.6c4.5-1.5,8-4.2,10.4-8.3c-2.5-0.7-5-1.4-7.5-2c0.3,4.3-3.8,5-6.5,2.4 C464.4,671.8,459.8,675.2,461.7,678.7L461.7,678.7z" fill="#fff9e4"/></g><g><path d="M470.6,680.7c1.1,11.3,6.4,22.1,8.8,33.3c3.1,14.5,3.1,28.7,3.9,43.4 c0.2,3.1,5.4,4.3,5.9,0.8c3.1-23.1-0.1-60.2-16-78.5C472.3,678.8,470.5,679.5,470.6,680.7L470.6,680.7z" fill="#fff9e4"/></g><g><path d="M497,709.8c13-55,50.8-84.6,90.6-120.6c2.8-2.5-0.9-7.5-4.1-5.3 c-41.3,29.4-86.9,71.6-91.4,125.3C491.9,711.9,496.3,712.5,497,709.8L497,709.8z" fill="#fff9e4"/></g><g><path d="M537.3,631.6c20.3-33.8,40.2-68.1,70.2-94.5c36.6-32,79.1-44.7,126.7-48.6 c5.2-0.4,5.3-8.7,0-8.2c-95.4,7.9-162.3,62-201.3,148.8C531.6,632,535.6,634.5,537.3,631.6L537.3,631.6z" fill="#fff9e4"/></g><g><path d="M733.4,485.2c-0.4-0.3-0.8-0.5-1.2-0.8c-0.8-0.5-2.2-0.4-2.8,0.4 c-31.5,36.9-53.4,74.9-97.1,100.1c-35.3,20.4-77.4,24.8-108.8,52c-4.1,3.6,1.8,9.3,5.9,5.9c37.1-30.9,88.9-35.2,128-64.2 c4.5-3.4,86-84,73.8-89.6C733.8,490.2,735.8,486.8,733.4,485.2L733.4,485.2z" fill="#fff9e4"/></g><g><path d="M730,482.6c-45.4,18.7-101.7,54.1-130.3,95.1c-1.2,1.7,1.2,4,2.9,2.9 c21.7-15.2,39.9-35.1,61.5-50.7c21.7-15.7,45.1-28.4,68-42.2C734.7,486.1,733,481.4,730,482.6L730,482.6z" fill="#fff9e4"/></g><g><path d="M511.8,602.1c4.3-5.1,5.5-12.8,8.2-18.8c2.9-6.4,7.5-12.1,9.8-18.7c1-2.9-2.8-4.5-4.8-2.8 c-5.8,5-9.1,13.4-12,20.3c-2.4,5.8-5.8,12.8-4.3,19.2C508.9,602.6,510.9,603.2,511.8,602.1L511.8,602.1z" fill="#fff9e4"/></g><g><path d="M547,480.4c-25.3,12.5-33.1,45.7-32.5,72c0.5,23,24.2,28.7,40.6,15.6 c18.8-15,34.4-52.3,22.9-75.5c-9.3-18.7-35.4-20.4-46.1-2.4c-2,3.3,2.5,6.6,5.2,4c11.6-10.8,27.2-10.2,34.6,5.2 c2.7,5.6,0.5,19-0.6,24.2c-2.9,13.4-9.4,28.1-20.1,37.1c-13,10.9-25.3,0.2-27.6-15.6c-1-7,1.8-15.8,3.5-22.5 c3.6-14.9,10.7-27.8,23-37.3C552.6,483,550.3,478.7,547,480.4L547,480.4z" fill="#fff9e4"/></g><g><path d="M519.2,554.8c-0.1,0.1-0.1,0.2-0.2,0.3c-1,1.4-0.4,3.2,0.6,4.3c5.7,7.2,15.1,15.6,25,12.5 c5-1.6,3-9.2-2.2-7.9c-5.5,1.3-8.1-1.4-11.5-5.2c-2.8-3.2-7.6,0.2-6.7,3.9c1.9,8.1,13.1,12.2,20.4,9.3c-0.7-2.6-1.5-5.3-2.2-7.9 c-7.3,2.5-13.4-6.3-18.5-10.2c-0.9-0.7-2.7-0.7-3.6,0C519.8,554.1,519.5,554.4,519.2,554.8L519.2,554.8z" fill="#fff9e4"/></g><g><path d="M526,525.8c-5.8,6.5-7.2,21.5,0.1,27.6c2,1.6,5,0.1,4.4-2.6c-0.9-3.9-2.9-7-3-11.2 c-0.1-4.1,1.4-7.5,2.9-11.3C531.2,525.9,527.7,524,526,525.8L526,525.8z" fill="#fff9e4"/></g><g><path d="M561.4,492.6c-0.4,3.8,1.9,7.8,2.4,11.6c0.5,3.8-1.3,8.4,0.2,11.9c0.8,1.9,2.8,2.5,4.4,1.2 c5.9-4.9,2.9-23.1-3.8-26.5C563,490.1,561.6,491,561.4,492.6L561.4,492.6z" fill="#fff9e4"/></g><g><path d="M510.9,535.5c-7.5-66.8,30.2-136.8,81.3-178.7c3.9-3.2-1.7-8.7-5.6-5.6 c-48.2,39.2-101.2,120.3-80.8,184.9C506.7,538.8,511.2,538.6,510.9,535.5L510.9,535.5z" fill="#fff9e4"/></g><g><path d="M515.5,460.3c-3.7-56.2,17-104,65.6-134.5c34.6-21.7,65.3-40,89.3-74.2 c2.3-3.3-3.1-7.5-5.6-4.3c-19.9,25.6-42,44.9-70,61.5c-20.5,12.2-40.1,23.6-55.5,42.2c-25.1,30.4-36.7,71.2-29.6,110 C510.4,464.3,515.7,463.6,515.5,460.3L515.5,460.3z" fill="#fff9e4"/></g><g><path d="M663.9,249.4c-27.4,37.6-29.8,86.1-59.6,123.7c-26.7,33.7-72.1,49.3-93.7,86.2 c-2.5,4.2,4,8,6.5,3.8c13.6-23.2,36.9-33.6,57.3-49.4c14.9-11.6,28.1-25.1,39.4-40.2c28-37.4,31.7-82.2,54.9-121.2 C670.6,249,666,246.5,663.9,249.4L663.9,249.4z" fill="#fff9e4"/></g><g><path d="M512.5,617.8c4-36.6,0.7-78.2-15-112c-16.1-34.5-46.8-50.5-75-73.8c-3.6-3-8.9,2-5.3,5.3 c23.2,21.3,52.6,34.6,68.6,63.1c20.8,36.9,17.7,77,22.3,117.5C508.4,620.6,512.2,620.7,512.5,617.8L512.5,617.8z" fill="#fff9e4"/></g><g><path d="M487.6,497.9c-31.6,5.4-69.2-13.3-90.9-36.3c-17.9-19-23.3-44.8-31.6-68.6 c-12.3-35.1-29.9-68.1-52.9-97.4c-2-2.6-6.2,0.8-4.5,3.5c18.6,29,35.1,58.3,46.9,90.8c8.4,23.3,13,48.9,27.9,69.2 c22.5,30.6,69.1,55.8,107,45.6C494,503.6,492.1,497.2,487.6,497.9L487.6,497.9z" fill="#fff9e4"/></g><g><path d="M309.2,299.2c23.6,33.4,55.2,59.8,87.6,84.2c40.5,30.4,64.1,73.7,88.5,117.1 c2.2,3.9,7.7,0.5,5.9-3.4c-17.3-37.5-39.8-78.8-71.2-106.6c-15.4-13.7-33.2-24.6-49-37.8c-20.8-17.4-38.9-37.2-58.3-56.1 C311,294.8,307.7,297,309.2,299.2L309.2,299.2z" fill="#fff9e4"/></g><g><path d="M325.6,322.1c10,22.8,26.6,42.7,41.8,62.2c12.3,15.7,25.3,30.5,42.3,41.2 c3.7,2.3,6.8-3.3,3.4-5.8c-36.2-25.7-57.7-65.7-84.8-99.9C327,318.2,324.9,320.4,325.6,322.1L325.6,322.1z" fill="#fff9e4"/></g><g><path d="M472.1,414.4c-0.2-12.8-2.9-25.2-2.4-38.1c0.5-12.8,4.3-25,5.3-37.7 c0.2-2.5-3.4-3.3-4.6-1.2c-11.8,20.6-12.6,56.7-2.5,78.1C468.9,417.6,472.1,416.5,472.1,414.4L472.1,414.4z" fill="#fff9e4"/></g><g><path d="M468.1,363.5c-0.3-22.1-4.7-44.3-3.8-66.3c1.1-26.5,13.6-48.4,26.6-70.7 c19.8-33.9,40.3-69.3,52.3-106.8c1.1-3.3-4-5.5-5.7-2.4c-22.9,43.5-47.5,87.8-68.7,132c-17.5,36.5-12.5,76.1-6.3,114.9 C463,367.4,468.1,366.6,468.1,363.5L468.1,363.5z" fill="#fff9e4"/></g><g><path d="M533.4,122.5c-8.3,86.2-10.4,169.2-71.3,237.3c-3.1,3.5,1.8,8.4,5.1,5.1 c62.5-61.9,72.9-158.7,71.9-242.4C539.1,118.7,533.8,118.9,533.4,122.5L533.4,122.5z" fill="#fff9e4"/></g><g><path d="M405,324.5c-34.6-20-60.2-48.9-69.4-88.6c-9.3-40.2-5.9-82.4-9-123.2 c-0.3-4.1-6.4-4.2-6.5,0c-0.9,80.7-2.1,177.3,81.6,217.6C405.4,332,408.7,326.6,405,324.5L405,324.5z" fill="#fff9e4"/></g><g><path d="M322.4,113.8c40.9,67.3,75,134.3,79.9,214.7c0.2,3.8,6.3,3.8,6,0 c-6.8-77.2-28.5-158.8-81.9-217.7C324.4,108.7,320.9,111.4,322.4,113.8L322.4,113.8z" fill="#fff9e4"/></g><g><path d="M409.7,332c-41.3-66-38.3-148.8-80-214.9c-2.1-3.3-6.6-0.4-5.1,3 c17.2,40.4,31.5,80,41.5,122.8c7.6,32.6,15.2,67.7,40.2,91.7C408,336.3,411,334.1,409.7,332L409.7,332z" fill="#fff9e4"/></g></g></svg>