<?xml version="1.0" encoding="UTF-8" standalone="no"?><svg xmlns="http://www.w3.org/2000/svg" xmlns:xlink="http://www.w3.org/1999/xlink" data-name="Layer 1" fill="#fff9e4" height="500" viewBox="0 0 500 500" width="500"><path d="M367.581,258c-.926-.8-2.917-1.695-5.846,1.313-3.9,4-9.571,7.987-16.141,12.6-12.486,8.761-28.024,19.665-43.456,38.463-22.633,27.569-24.35,59.36-24.48,63.795-2.684,4.734-5.254,9.679-7.647,14.814q1.86-9.821,3.587-20.312a2.285,2.285,0,0,0,.141-.858c3.546-21.778,6.511-45.534,8.247-70.532,21.167-15.6,28.5-33.477,30.46-39.464.206.012.409.031.618.031a10.134,10.134,0,1,0-5.015-1.344,62.445,62.445,0,0,1-5.174,11.192A85.379,85.379,0,0,1,282.383,291.2q.363-5.97.631-12.023.368-8.457.439-16.734a502.456,502.456,0,0,1,10.774-64.024c4.629-2.337,21.841-13.025,38.058-48.882,8.193-18.117,9.135-38.857,8.482-53.065a141.081,141.081,0,0,0-2.276-19.932c-1.752-8.926-3.049-9.514-3.908-9.9a2.494,2.494,0,0,0-3.345,1.329c-.435.956-2.551,4.394-5.23,8.746-7.06,11.468-20.2,32.816-29.428,52.326-12.318,26.044-7.461,62.509-6.7,67.587-2.518,10.514-4.923,22.341-7.033,35.53q-.267-5.48-.636-10.831a2.285,2.285,0,0,0-.01-.541c-.013-.086-.031-.169-.044-.254a580.584,580.584,0,0,0-10.436-75.711c1.157-4.479,8.764-35.8,2.817-63.556-4.318-20.152-19.805-44.382-30.052-60.416-4.165-6.515-8.1-12.669-8.537-14.524a2.794,2.794,0,0,0-1.953-2.3,2.5,2.5,0,0,0-2.479.721c-2.4,2.505-4.068,19.4-4.483,30.6-.52,13.991-.022,34.181,5.293,50.9,12.765,40.157,30.792,56.418,34.892,59.711,3.156,15.324,6.039,32.413,8.152,50.85-10.83-25.644-29.611-42.308-35.417-47.033a10.586,10.586,0,1,0-9.348,5.581,10.636,10.636,0,0,0,1.231-.071,10.511,10.511,0,0,0,5.114-2.034c6.734,5.548,34.93,30.752,40.667,67.877a511.735,511.735,0,0,1,.828,57.849c-1.057,24.291-3.376,47.6-6.387,69.314a207.319,207.319,0,0,0-12.918-48.361c-.315-3.7-4.333-46.932-22.049-78.039-18.275-32.087-55.825-47.2-57.415-47.824a2.288,2.288,0,0,0-3.115,2.373c.166,1.546,4.312,38.263,25.742,71.986,24.024,37.8,47.741,51.06,52.726,53.543a197.253,197.253,0,0,1,14.12,65.579c-5.232,32.024-11.713,59.723-17.338,80.706a160.651,160.651,0,0,0-5.74-33.272c.869-4.758,7.057-42.5-8.136-77.594-11.687-27-33.557-45.6-45.306-55.589-3.542-3.012-7.2-6.126-7.706-7.187a2.6,2.6,0,0,0-3.438-1.464c-1,.444-2.239,1-2.714,9.763a154.02,154.02,0,0,0,.376,19.307c1.063,13.814,4.12,34.578,12.648,55.045,15.531,37.273,44.4,55.916,49.925,59.223,4.349,15.738,6.822,32.59,5.256,48.985-4.687,15.935-8.006,25.1-8.112,25.384a2.288,2.288,0,1,0,4.3,1.577c.106-.289,3.416-9.421,8.1-25.312a2.3,2.3,0,0,0,.237-.8c3.565-12.155,7.895-28.147,12.207-47.081a2.24,2.24,0,0,0,.149-.394,184.348,184.348,0,0,1,17.587-42.085c6.288-1.127,35.274-7.642,55.957-34.644,7.806-10.191,16.694-28.247,23.776-48.3a196.016,196.016,0,0,0,6.665-22.59C369.913,261.586,368.941,259.171,367.581,258Zm-54.517-15.79a5.531,5.531,0,1,1-5.53,5.531A5.537,5.537,0,0,1,313.064,242.206ZM258.89,130.184c-6.187-8.276-15.062-22.856-22.2-45.326-7.671-24.133-5.2-59.627-2.894-72.542,1.524,2.658,3.787,6.22,6.836,10.991,10.07,15.756,25.288,39.566,29.433,58.91,4,18.648,1.488,39.53-.7,51.655-.466-2.062-.931-4.075-1.392-6.018-9.04-38.078-18.862-61.987-18.96-62.224a2.288,2.288,0,1,0-4.228,1.75c.208.5,11.286,27.693,20.763,70.723A86.06,86.06,0,0,1,258.89,130.184Zm-27.578,20.553a6.019,6.019,0,1,1,4.026-2.237A6,6,0,0,1,231.312,150.737Zm-25.148,95.232c-16.811-26.452-22.779-55.556-24.478-66.011,9.894,4.648,37.2,19.221,51.426,44.195,11.161,19.6,16.784,44.813,19.419,60.785a237.664,237.664,0,0,0-12.5-22.589c-15.75-25.132-30.92-39.4-31.559-40a2.288,2.288,0,0,0-3.121,3.346c.152.143,15.444,14.541,30.88,39.2a231.955,231.955,0,0,1,15.882,30.078C243.084,289.224,224.6,274.984,206.164,245.969ZM196.017,355.5c-12.711-30.506-13.585-64.586-12.46-75.572,1.436,1.371,3.43,3.079,6.105,5.354,11.466,9.751,32.807,27.9,44.071,53.921,10.593,24.468,10.284,50.92,9.058,65.06a242.119,242.119,0,0,0-9.086-23.008,268.26,268.26,0,0,0-22.229-39.849,2.288,2.288,0,0,0-3.733,2.648c.3.426,20.494,29.254,31.963,65.618C229.889,402.783,208.351,385.1,196.017,355.5Zm96.9-181.912c0-11.912,1.358-28.971,7.8-42.6,9.119-19.282,22.175-40.49,29.188-51.884,1.363-2.215,2.441-3.968,3.276-5.347,2.8,11.227,7.437,46.243-5.066,73.888-9.242,20.437-18.752,32.148-25.1,38.374a57.147,57.147,0,0,1-7.222,6.077c10.252-40.038,21.718-59.23,21.887-59.506a2.288,2.288,0,0,0-3.9-2.388c-.659,1.078-10.831,18.05-20.563,53.43C293.035,180.633,292.912,177.239,292.913,173.589ZM333.76,339.33c-16.552,21.609-39.255,29.488-49.168,32.021,21.114-35.038,47.508-57.126,47.878-57.431a2.288,2.288,0,1,0-2.913-3.529c-.363.3-25.245,21.1-46.33,54.479,1.87-12.017,7.21-33.036,22.448-51.6,15.035-18.314,30.29-29.019,42.547-37.62,6.5-4.561,12.147-8.524,16.3-12.656C364.2,273.59,349.956,318.187,333.76,339.33Z"/></svg>