<?xml version="1.0" encoding="UTF-8" standalone="no"?><svg xmlns="http://www.w3.org/2000/svg" xmlns:xlink="http://www.w3.org/1999/xlink" data-name="Layer 1" fill="#fff9e4" height="500" viewBox="0 0 500 500" width="500"><path d="M269.9,154.462a81.377,81.377,0,0,0,51.507-34.374c7.807-11.711,13.581-25.859,17.05-35.665,1.706-4.826,3.255-9.755,4.36-13.877,1.72-6.416,1.432-6.936.995-7.722a2.47,2.47,0,0,0-2.207-1.257,2.685,2.685,0,0,0-2.368,1.775c-.773,1.608-7.805,7.232-14.6,12.671-10.08,8.062-22.624,18.1-32.911,28.608-8.5,8.688-14.612,18.881-18.8,27.57,6.034-42.124,12.014-71.407,13.756-79.618a24.728,24.728,0,1,0-4.632-1.269c-2.408,11.318-13.806,67.054-21.475,142.182-2.445,23.956-4.653,51.463-5.98,81.154-18.945-20.945-33.844-43.51-44.325-67.146a220.555,220.555,0,0,1-9.1-24.262c4.1-2.67,22.377-16.076,31.127-47.71A311.671,311.671,0,0,0,239.678,98.8c.709-4.975,1.275-9.728,1.595-13.386.43-4.911.625-7.152-1.56-7.819a2.556,2.556,0,0,0-3.2,1.928c-.517,1.554-4.4,7.823-8.5,14.461-6.545,10.581-15.508,25.073-21.788,37.634-5.7,11.4-8.415,24.83-9.448,35.072a207.984,207.984,0,0,1-3.648-21.569c-3.459-30.166.882-52.32,2.464-59a21.963,21.963,0,1,0-4.658-1.192c-1.692,6.973-6.133,29.34-2.6,60.5a218.709,218.709,0,0,0,17.484,63.868q2.164,4.891,4.576,9.718c-6.378-7.761-13.119-16.279-17.268-22.425-1.91-2.83-4.193-6.39-6.836-10.511-11.285-17.595-26.739-41.692-39.243-50.232-4.122-2.814-6.468-.93-7.285.01-4.774,5.491,1.988,27.352,5.116,36.5,4.96,14.5,13.187,33.2,21.4,42.22,19.83,21.772,51.025,26.971,57.463,27.832a277.768,277.768,0,0,0,30.572,39.015c-.821,20.72-1.194,42.43-.914,64.7-.024.149-.038.238-.039.248a2.374,2.374,0,0,0,.055.97c.284,20.833,1.138,42.132,2.752,63.55-5.179-18.04-12.819-40.549-22.282-56.579C224.7,338.736,209.359,318.1,195.82,299.9c-12.972-17.442-25.226-33.917-29.277-42.195-.859-1.757-1.938-3.634-3.88-3.673a2.872,2.872,0,0,0-2.546,1.548c-3.64,6.733,10.85,75.139,31.247,104.951,22.275,32.555,62.729,76.372,67.735,81.76,1.841,16.5,4.172,32.958,7.083,49.211a2.4,2.4,0,0,0,2.357,1.975,2.468,2.468,0,0,0,.425-.038,2.4,2.4,0,0,0,1.938-2.783c-8.468-47.269-12.031-96.3-12.685-142.985,6.65-6.348,50.148-49.166,67.13-98.393,8.121-23.54,11.435-47.057,12.784-62.641.706-8.147,1.971-29.918-.613-32.787a2.532,2.532,0,0,0-2.479-.8,3.155,3.155,0,0,0-2.169,2.432c-.95,3.326-10.48,20.191-20.569,38.044-12.013,21.259-26.963,47.715-35,64.567-6.308,13.232-12.255,32.113-17.677,56.12-.526,2.33-1.02,4.594-1.483,6.776.41-47.229,3.537-91.078,7.2-126.947C266.761,180.126,268.309,166.882,269.9,154.462Zm25.248-46.488c10.082-10.3,22.5-20.236,32.479-28.217,4.147-3.316,7.4-5.934,9.879-8.041-3.093,10.743-10,30.583-20.089,45.712-14.982,22.474-37.395,29.759-46.214,31.835C273.834,141.313,281.189,122.244,295.152,107.974ZM270.939,28.207a19.934,19.934,0,1,1,19.934,19.934A19.957,19.957,0,0,1,270.939,28.207Zm-60.426,105.55c6.183-12.367,15.081-26.752,21.578-37.256,1.464-2.369,2.743-4.438,3.842-6.238-1.27,10.851-4.022,28.689-8.252,43.981-6.971,25.206-20.519,38.295-26.613,43.121C200.977,169.563,202.394,150,210.513,133.757Zm-29-69.385A17.168,17.168,0,1,1,198.675,81.54,17.187,17.187,0,0,1,181.508,64.372Zm-11.681,146.96c-6.45-7.082-14.264-22.6-20.392-40.5-6.812-19.894-7.121-29.713-6.184-31.634a4.676,4.676,0,0,1,1.1.593c11.7,7.99,27.473,32.585,37.911,48.86,2.66,4.148,4.957,7.729,6.9,10.606,7.406,10.972,22.4,28.765,29.833,37.434C207.931,234.446,185,227.987,169.827,211.332Zm25.494,146.491c-11.63-17-19.879-44.269-23.761-59.012a255.96,255.96,0,0,1-6.971-34.708c5.416,9.122,15.722,22.979,27.384,38.659,13.467,18.107,28.732,38.631,37.787,53.969,13.3,22.534,23.186,59.421,27.238,76.186C244.036,418.683,213.515,384.415,195.321,357.823Zm86.311-97.667c7.962-16.7,22.867-43.077,34.843-64.271,8.376-14.823,14.378-25.482,17.8-32.084.289,15.154-2.032,50.793-13.458,83.913-14.4,41.729-48.408,78.889-61.472,92.115C262.245,323.682,270.108,284.328,281.632,260.156Z"/></svg>